/videos/22fba80a-215a-423c-72fd-6234417f3e06/hls1/main/0.ts

{"Protocol":0,"Id":"22fba80a215a423c72fd6234417f3e06","Path":"/data/tvshows/Top Gear/Season 33/Top Gear - S33E01 - Episode 1 WEBRip-720p.mkv","EncoderPath":null,"EncoderProtocol":null,"Type":0,"Container":"mkv,webm","Size":794966517,"Name":"Top Gear - S33E01 - Episode 1 WEBRip-720p","IsRemote":false,"ETag":"d445bb45fe97c7bc3288c85d2a21f7ca","RunTimeTicks":34500830000,"ReadAtNativeFramerate":false,"IgnoreDts":false,"IgnoreIndex":false,"GenPtsInput":false,"SupportsTranscoding":true,"SupportsDirectStream":true,"SupportsDirectPlay":true,"IsInfiniteStream":false,"RequiresOpening":false,"OpenToken":null,"RequiresClosing":false,"LiveStreamId":null,"BufferMs":null,"RequiresLooping":false,"SupportsProbing":true,"VideoType":0,"IsoType":null,"Video3DFormat":null,"MediaStreams":[{"Codec":"h264","CodecTag":null,"Language":"eng","ColorRange":null,"ColorSpace":"bt709","ColorTransfer":"bt709","ColorPrimaries":"bt709","DvVersionMajor":null,"DvVersionMinor":null,"DvProfile":null,"DvLevel":null,"RpuPresentFlag":null,"ElPresentFlag":null,"BlPresentFlag":null,"DvBlSignalCompatibilityId":null,"Comment":null,"TimeBase":"1/1000","CodecTimeBase":null,"Title":"GalaxyTV - small excellence!","VideoRange":"SDR","VideoRangeType":"SDR","VideoDoViTitle":null,"LocalizedUndefined":null,"LocalizedDefault":null,"LocalizedForced":null,"LocalizedExternal":null,"DisplayTitle":"GalaxyTV - small excellence! - 720p - H264 - SDR","NalLengthSize":"4","IsInterlaced":false,"IsAVC":true,"ChannelLayout":null,"BitRate":1843356,"BitDepth":8,"RefFrames":1,"PacketLength":null,"Channels":null,"SampleRate":null,"IsDefault":true,"IsForced":false,"Height":720,"Width":1280,"AverageFrameRate":50,"RealFrameRate":50,"Profile":"High","Type":1,"AspectRatio":"16:9","Index":0,"Score":null,"IsExternal":false,"DeliveryMethod":null,"DeliveryUrl":null,"IsExternalUrl":null,"IsTextSubtitleStream":false,"SupportsExternalStream":false,"Path":null,"PixelFormat":"yuv420p","Level":32,"IsAnamorphic":null},{"Codec":"aac","CodecTag":null,"Language":"eng","ColorRange":null,"ColorSpace":null,"ColorTransfer":null,"ColorPrimaries":null,"DvVersionMajor":null,"DvVersionMinor":null,"DvProfile":null,"DvLevel":null,"RpuPresentFlag":null,"ElPresentFlag":null,"BlPresentFlag":null,"DvBlSignalCompatibilityId":null,"Comment":null,"TimeBase":"1/1000","CodecTimeBase":null,"Title":"GalaxyTV - small excellence!","VideoRange":null,"VideoRangeType":null,"VideoDoViTitle":null,"LocalizedUndefined":null,"LocalizedDefault":null,"LocalizedForced":null,"LocalizedExternal":null,"DisplayTitle":"GalaxyTV - small excellence! - English - AAC - Stereo - Default","NalLengthSize":null,"IsInterlaced":false,"IsAVC":null,"ChannelLayout":"stereo","BitRate":128000,"BitDepth":null,"RefFrames":null,"PacketLength":null,"Channels":2,"SampleRate":48000,"IsDefault":true,"IsForced":false,"Height":null,"Width":null,"AverageFrameRate":null,"RealFrameRate":null,"Profile":"LC","Type":0,"AspectRatio":null,"Index":1,"Score":null,"IsExternal":false,"DeliveryMethod":null,"DeliveryUrl":null,"IsExternalUrl":null,"IsTextSubtitleStream":false,"SupportsExternalStream":false,"Path":null,"PixelFormat":null,"Level":0,"IsAnamorphic":null},{"Codec":"subrip","CodecTag":null,"Language":"eng","ColorRange":null,"ColorSpace":null,"ColorTransfer":null,"ColorPrimaries":null,"DvVersionMajor":null,"DvVersionMinor":null,"DvProfile":null,"DvLevel":null,"RpuPresentFlag":null,"ElPresentFlag":null,"BlPresentFlag":null,"DvBlSignalCompatibilityId":null,"Comment":null,"TimeBase":"1/1000","CodecTimeBase":null,"Title":"GalaxyTV - small excellence!","VideoRange":null,"VideoRangeType":null,"VideoDoViTitle":null,"LocalizedUndefined":"Undefined","LocalizedDefault":"Default","LocalizedForced":"Forced","LocalizedExternal":"External","DisplayTitle":"GalaxyTV - small excellence! - English - Default - SUBRIP","NalLengthSize":null,"IsInterlaced":false,"IsAVC":null,"ChannelLayout":null,"BitRate":null,"BitDepth":null,"RefFrames":null,"PacketLength":null,"Channels":null,"SampleRate":null,"IsDefault":true,"IsForced":false,"Height":null,"Width":null,"AverageFrameRate":null,"RealFrameRate":null,"Profile":null,"Type":2,"AspectRatio":null,"Index":2,"Score":null,"IsExternal":false,"DeliveryMethod":null,"DeliveryUrl":null,"IsExternalUrl":null,"IsTextSubtitleStream":true,"SupportsExternalStream":true,"Path":null,"PixelFormat":null,"Level":0,"IsAnamorphic":null}],"MediaAttachments":[],"Formats":[],"Bitrate":1971356,"Timestamp":null,"RequiredHttpHeaders":{},"TranscodingUrl":null,"TranscodingSubProtocol":null,"TranscodingContainer":null,"AnalyzeDurationMs":null,"DefaultAudioStreamIndex":null,"DefaultSubtitleStreamIndex":null}

/usr/lib/jellyfin-ffmpeg/ffmpeg -analyzeduration 200M -fflags +genpts -f matroska,webm  -i file:"/data/tvshows/Top Gear/Season 33/Top Gear - S33E01 - Episode 1 WEBRip-720p.mkv" -map_metadata -1 -map_chapters -1 -threads 0 -map 0:0 -map 0:1 -map -0:s -codec:v:0 copy -bsf:v h264_mp4toannexb -start_at_zero -codec:a:0 copy -copyts -avoid_negative_ts disabled -max_muxing_queue_size 2048 -f hls -max_delay 5000000 -hls_time 6 -hls_segment_type mpegts -start_number 0 -hls_segment_filename "/config/data/transcodes/fe84cfad02ad670f2aa0ca854e7ba97b%d.ts" -hls_playlist_type vod -hls_list_size 0 -y "/config/data/transcodes/fe84cfad02ad670f2aa0ca854e7ba97b.m3u8"


ffmpeg version 5.1.3-Jellyfin Copyright (c) 2000-2022 the FFmpeg developers
  built with gcc 11 (Ubuntu 11.3.0-1ubuntu1~22.04.1)
  configuration: --prefix=/usr/lib/jellyfin-ffmpeg --target-os=linux --extra-libs=-lfftw3f --extra-version=Jellyfin --disable-doc --disable-ffplay --disable-ptx-compression --disable-static --disable-libxcb --disable-sdl2 --disable-xlib --enable-lto --enable-gpl --enable-version3 --enable-shared --enable-gmp --enable-gnutls --enable-chromaprint --enable-libdrm --enable-libass --enable-libfreetype --enable-libfribidi --enable-libfontconfig --enable-libbluray --enable-libmp3lame --enable-libopus --enable-libtheora --enable-libvorbis --enable-libopenmpt --enable-libdav1d --enable-libwebp --enable-libvpx --enable-libx264 --enable-libx265 --enable-libzvbi --enable-libzimg --enable-libfdk-aac --arch=amd64 --enable-libsvtav1 --enable-libshaderc --enable-libplacebo --enable-vulkan --enable-opencl --enable-vaapi --enable-amf --enable-libmfx --enable-ffnvcodec --enable-cuda --enable-cuda-llvm --enable-cuvid --enable-nvdec --enable-nvenc
  libavutil      57. 28.100 / 57. 28.100
  libavcodec     59. 37.100 / 59. 37.100
  libavformat    59. 27.100 / 59. 27.100
  libavdevice    59.  7.100 / 59.  7.100
  libavfilter     8. 44.100 /  8. 44.100
  libswscale      6.  7.100 /  6.  7.100
  libswresample   4.  7.100 /  4.  7.100
  libpostproc    56.  6.100 / 56.  6.100
Input #0, matroska,webm, from 'file:/data/tvshows/Top Gear/Season 33/Top Gear - S33E01 - Episode 1 WEBRip-720p.mkv':
  Metadata:
    title           : Top.Gear.S33E01.720p.iP.WEBRip.x264-GalaxyTV
    COMMENT         : GalaxyTV - small excellence!
    ENCODER         : Lavf58.76.100
  Duration: 00:57:30.08, start: 0.000000, bitrate: 1843 kb/s
  Stream #0:0(eng): Video: h264 (High), yuv420p(tv, bt709, progressive), 1280x720 [SAR 1:1 DAR 16:9], 50 fps, 50 tbr, 1k tbn (default) (original)
    Metadata:
      title           : GalaxyTV - small excellence!
      BPS             : 5051871
      NUMBER_OF_FRAMES: 172502
      NUMBER_OF_BYTES : 2178644632
      _STATISTICS_WRITING_APP: mkvmerge v71.1.0 ('Fortitude') 64-bit
      _STATISTICS_WRITING_DATE_UTC: 2022-10-30 23:45:12
      _STATISTICS_TAGS: BPS DURATION NUMBER_OF_FRAMES NUMBER_OF_BYTES
      ENCODER         : Lavc58.134.100 libx264
      DURATION        : 00:57:30.083000000
  Stream #0:1(eng): Audio: aac (LC), 48000 Hz, stereo, fltp (default) (original)
    Metadata:
      title           : GalaxyTV - small excellence!
      BPS             : 128000
      NUMBER_OF_FRAMES: 161720
      NUMBER_OF_BYTES : 55200426
      _STATISTICS_WRITING_APP: mkvmerge v71.1.0 ('Fortitude') 64-bit
      _STATISTICS_WRITING_DATE_UTC: 2022-10-30 23:45:12
      _STATISTICS_TAGS: BPS DURATION NUMBER_OF_FRAMES NUMBER_OF_BYTES
      ENCODER         : Lavc58.134.100 libfdk_aac
      DURATION        : 00:57:30.069000000
  Stream #0:2(eng): Subtitle: subrip (default)
    Metadata:
      title           : GalaxyTV - small excellence!
      _STATISTICS_TAGS: BPS DURATION NUMBER_OF_FRAMES NUMBER_OF_BYTES
      BPS             : 78
      NUMBER_OF_FRAMES: 977
      NUMBER_OF_BYTES : 33198
      _STATISTICS_WRITING_APP: mkvmerge v71.1.0 ('Fortitude') 64-bit
      _STATISTICS_WRITING_DATE_UTC: 2022-10-30 23:45:12
      ENCODER         : Lavc58.134.100 srt
      DURATION        : 00:57:00.203000000
Output #0, hls, to '/config/data/transcodes/fe84cfad02ad670f2aa0ca854e7ba97b.m3u8':
  Metadata:
    encoder         : Lavf59.27.100
  Stream #0:0: Video: h264 (High), yuv420p(tv, bt709, progressive), 1280x720 [SAR 1:1 DAR 16:9], q=2-31, 50 fps, 50 tbr, 90k tbn (default) (original)
  Stream #0:1: Audio: aac (LC), 48000 Hz, stereo, fltp (default) (original)
Stream mapping:
  Stream #0:0 -> #0:0 (copy)
  Stream #0:1 -> #0:1 (copy)
Press [q] to stop, [?] for help
frame=    0 fps=0.0 q=-1.0 size=N/A time=00:00:00.00 bitrate=N/A speed=   0x    
[hls @ 0x56176842cb40] Opening '/config/data/transcodes/fe84cfad02ad670f2aa0ca854e7ba97b0.ts' for writing
[hls @ 0x56176842cb40] Opening '/config/data/transcodes/fe84cfad02ad670f2aa0ca854e7ba97b1.ts' for writing
[hls @ 0x56176842cb40] Opening '/config/data/transcodes/fe84cfad02ad670f2aa0ca854e7ba97b2.ts' for writing
[hls @ 0x56176842cb40] Opening '/config/data/transcodes/fe84cfad02ad670f2aa0ca854e7ba97b3.ts' for writing
[hls @ 0x56176842cb40] Opening '/config/data/transcodes/fe84cfad02ad670f2aa0ca854e7ba97b4.ts' for writing
[hls @ 0x56176842cb40] Opening '/config/data/transcodes/fe84cfad02ad670f2aa0ca854e7ba97b5.ts' for writing
[hls @ 0x56176842cb40] Opening '/config/data/transcodes/fe84cfad02ad670f2aa0ca854e7ba97b6.ts' for writing
[hls @ 0x56176842cb40] Opening '/config/data/transcodes/fe84cfad02ad670f2aa0ca854e7ba97b7.ts' for writing
[hls @ 0x56176842cb40] Opening '/config/data/transcodes/fe84cfad02ad670f2aa0ca854e7ba97b8.ts' for writing
[hls @ 0x56176842cb40] Opening '/config/data/transcodes/fe84cfad02ad670f2aa0ca854e7ba97b9.ts' for writing
[hls @ 0x56176842cb40] Opening '/config/data/transcodes/fe84cfad02ad670f2aa0ca854e7ba97b10.ts' for writing
[hls @ 0x56176842cb40] Opening '/config/data/transcodes/fe84cfad02ad670f2aa0ca854e7ba97b11.ts' for writing
[hls @ 0x56176842cb40] Opening '/config/data/transcodes/fe84cfad02ad670f2aa0ca854e7ba97b12.ts' for writing
[hls @ 0x56176842cb40] Opening '/config/data/transcodes/fe84cfad02ad670f2aa0ca854e7ba97b13.ts' for writing
[hls @ 0x56176842cb40] Opening '/config/data/transcodes/fe84cfad02ad670f2aa0ca854e7ba97b14.ts' for writing
[hls @ 0x56176842cb40] Opening '/config/data/transcodes/fe84cfad02ad670f2aa0ca854e7ba97b15.ts' for writing
[hls @ 0x56176842cb40] Opening '/config/data/transcodes/fe84cfad02ad670f2aa0ca854e7ba97b16.ts' for writing
[hls @ 0x56176842cb40] Opening '/config/data/transcodes/fe84cfad02ad670f2aa0ca854e7ba97b17.ts' for writing
[hls @ 0x56176842cb40] Opening '/config/data/transcodes/fe84cfad02ad670f2aa0ca854e7ba97b18.ts' for writing
[hls @ 0x56176842cb40] Opening '/config/data/transcodes/fe84cfad02ad670f2aa0ca854e7ba97b19.ts' for writing
[hls @ 0x56176842cb40] Opening '/config/data/transcodes/fe84cfad02ad670f2aa0ca854e7ba97b20.ts' for writing
[hls @ 0x56176842cb40] Opening '/config/data/transcodes/fe84cfad02ad670f2aa0ca854e7ba97b21.ts' for writing
[hls @ 0x56176842cb40] Opening '/config/data/transcodes/fe84cfad02ad670f2aa0ca854e7ba97b22.ts' for writing
[hls @ 0x56176842cb40] Opening '/config/data/transcodes/fe84cfad02ad670f2aa0ca854e7ba97b23.ts' for writing
[hls @ 0x56176842cb40] Opening '/config/data/transcodes/fe84cfad02ad670f2aa0ca854e7ba97b24.ts' for writing
[hls @ 0x56176842cb40] Opening '/config/data/transcodes/fe84cfad02ad670f2aa0ca854e7ba97b25.ts' for writing
[hls @ 0x56176842cb40] Opening '/config/data/transcodes/fe84cfad02ad670f2aa0ca854e7ba97b26.ts' for writing
[hls @ 0x56176842cb40] Opening '/config/data/transcodes/fe84cfad02ad670f2aa0ca854e7ba97b27.ts' for writing
[hls @ 0x56176842cb40] Opening '/config/data/transcodes/fe84cfad02ad670f2aa0ca854e7ba97b28.ts' for writing
[hls @ 0x56176842cb40] Opening '/config/data/transcodes/fe84cfad02ad670f2aa0ca854e7ba97b29.ts' for writing
[hls @ 0x56176842cb40] Opening '/config/data/transcodes/fe84cfad02ad670f2aa0ca854e7ba97b30.ts' for writing
[hls @ 0x56176842cb40] Opening '/config/data/transcodes/fe84cfad02ad670f2aa0ca854e7ba97b31.ts' for writing
[hls @ 0x56176842cb40] Opening '/config/data/transcodes/fe84cfad02ad670f2aa0ca854e7ba97b32.ts' for writing
[hls @ 0x56176842cb40] Opening '/config/data/transcodes/fe84cfad02ad670f2aa0ca854e7ba97b33.ts' for writing
[hls @ 0x56176842cb40] Opening '/config/data/transcodes/fe84cfad02ad670f2aa0ca854e7ba97b34.ts' for writing
[hls @ 0x56176842cb40] Opening '/config/data/transcodes/fe84cfad02ad670f2aa0ca854e7ba97b35.ts' for writing
[hls @ 0x56176842cb40] Opening '/config/data/transcodes/fe84cfad02ad670f2aa0ca854e7ba97b36.ts' for writing
[hls @ 0x56176842cb40] Opening '/config/data/transcodes/fe84cfad02ad670f2aa0ca854e7ba97b37.ts' for writing
[hls @ 0x56176842cb40] Opening '/config/data/transcodes/fe84cfad02ad670f2aa0ca854e7ba97b38.ts' for writing
[hls @ 0x56176842cb40] Opening '/config/data/transcodes/fe84cfad02ad670f2aa0ca854e7ba97b39.ts' for writing
[hls @ 0x56176842cb40] Opening '/config/data/transcodes/fe84cfad02ad670f2aa0ca854e7ba97b40.ts' for writing
[hls @ 0x56176842cb40] Opening '/config/data/transcodes/fe84cfad02ad670f2aa0ca854e7ba97b41.ts' for writing
[hls @ 0x56176842cb40] Opening '/config/data/transcodes/fe84cfad02ad670f2aa0ca854e7ba97b42.ts' for writing
[hls @ 0x56176842cb40] Opening '/config/data/transcodes/fe84cfad02ad670f2aa0ca854e7ba97b43.ts' for writing
[hls @ 0x56176842cb40] Opening '/config/data/transcodes/fe84cfad02ad670f2aa0ca854e7ba97b44.ts' for writing
[hls @ 0x56176842cb40] Opening '/config/data/transcodes/fe84cfad02ad670f2aa0ca854e7ba97b45.ts' for writing
[hls @ 0x56176842cb40] Opening '/config/data/transcodes/fe84cfad02ad670f2aa0ca854e7ba97b46.ts' for writing
[hls @ 0x56176842cb40] Opening '/config/data/transcodes/fe84cfad02ad670f2aa0ca854e7ba97b47.ts' for writing
[hls @ 0x56176842cb40] Opening '/config/data/transcodes/fe84cfad02ad670f2aa0ca854e7ba97b48.ts' for writing
[hls @ 0x56176842cb40] Opening '/config/data/transcodes/fe84cfad02ad670f2aa0ca854e7ba97b49.ts' for writing
[hls @ 0x56176842cb40] Opening '/config/data/transcodes/fe84cfad02ad670f2aa0ca854e7ba97b50.ts' for writing
[hls @ 0x56176842cb40] Opening '/config/data/transcodes/fe84cfad02ad670f2aa0ca854e7ba97b51.ts' for writing
[hls @ 0x56176842cb40] Opening '/config/data/transcodes/fe84cfad02ad670f2aa0ca854e7ba97b52.ts' for writing
[hls @ 0x56176842cb40] Opening '/config/data/transcodes/fe84cfad02ad670f2aa0ca854e7ba97b53.ts' for writing
[hls @ 0x56176842cb40] Opening '/config/data/transcodes/fe84cfad02ad670f2aa0ca854e7ba97b54.ts' for writing
[hls @ 0x56176842cb40] Opening '/config/data/transcodes/fe84cfad02ad670f2aa0ca854e7ba97b55.ts' for writing
[hls @ 0x56176842cb40] Opening '/config/data/transcodes/fe84cfad02ad670f2aa0ca854e7ba97b56.ts' for writing
[hls @ 0x56176842cb40] Opening '/config/data/transcodes/fe84cfad02ad670f2aa0ca854e7ba97b57.ts' for writing
[hls @ 0x56176842cb40] Opening '/config/data/transcodes/fe84cfad02ad670f2aa0ca854e7ba97b58.ts' for writing
[hls @ 0x56176842cb40] Opening '/config/data/transcodes/fe84cfad02ad670f2aa0ca854e7ba97b59.ts' for writing
[hls @ 0x56176842cb40] Opening '/config/data/transcodes/fe84cfad02ad670f2aa0ca854e7ba97b60.ts' for writing
[hls @ 0x56176842cb40] Opening '/config/data/transcodes/fe84cfad02ad670f2aa0ca854e7ba97b61.ts' for writing
[hls @ 0x56176842cb40] Opening '/config/data/transcodes/fe84cfad02ad670f2aa0ca854e7ba97b62.ts' for writing
[hls @ 0x56176842cb40] Opening '/config/data/transcodes/fe84cfad02ad670f2aa0ca854e7ba97b63.ts' for writing
[hls @ 0x56176842cb40] Opening '/config/data/transcodes/fe84cfad02ad670f2aa0ca854e7ba97b64.ts' for writing
[hls @ 0x56176842cb40] Opening '/config/data/transcodes/fe84cfad02ad670f2aa0ca854e7ba97b65.ts' for writing
[hls @ 0x56176842cb40] Opening '/config/data/transcodes/fe84cfad02ad670f2aa0ca854e7ba97b66.ts' for writing
frame=20178 fps=0.0 q=-1.0 size=N/A time=00:06:43.54 bitrate=N/A speed= 805x    
[hls @ 0x56176842cb40] Opening '/config/data/transcodes/fe84cfad02ad670f2aa0ca854e7ba97b67.ts' for writing
[hls @ 0x56176842cb40] Opening '/config/data/transcodes/fe84cfad02ad670f2aa0ca854e7ba97b68.ts' for writing
[hls @ 0x56176842cb40] Opening '/config/data/transcodes/fe84cfad02ad670f2aa0ca854e7ba97b69.ts' for writing
[hls @ 0x56176842cb40] Opening '/config/data/transcodes/fe84cfad02ad670f2aa0ca854e7ba97b70.ts' for writing
[hls @ 0x56176842cb40] Opening '/config/data/transcodes/fe84cfad02ad670f2aa0ca854e7ba97b71.ts' for writing
[hls @ 0x56176842cb40] Opening '/config/data/transcodes/fe84cfad02ad670f2aa0ca854e7ba97b72.ts' for writing
[hls @ 0x56176842cb40] Opening '/config/data/transcodes/fe84cfad02ad670f2aa0ca854e7ba97b73.ts' for writing
[hls @ 0x56176842cb40] Opening '/config/data/transcodes/fe84cfad02ad670f2aa0ca854e7ba97b74.ts' for writing
[hls @ 0x56176842cb40] Opening '/config/data/transcodes/fe84cfad02ad670f2aa0ca854e7ba97b75.ts' for writing
[hls @ 0x56176842cb40] Opening '/config/data/transcodes/fe84cfad02ad670f2aa0ca854e7ba97b76.ts' for writing
[hls @ 0x56176842cb40] Opening '/config/data/transcodes/fe84cfad02ad670f2aa0ca854e7ba97b77.ts' for writing
[hls @ 0x56176842cb40] Opening '/config/data/transcodes/fe84cfad02ad670f2aa0ca854e7ba97b78.ts' for writing
[hls @ 0x56176842cb40] Opening '/config/data/transcodes/fe84cfad02ad670f2aa0ca854e7ba97b79.ts' for writing
[hls @ 0x56176842cb40] Opening '/config/data/transcodes/fe84cfad02ad670f2aa0ca854e7ba97b80.ts' for writing
[hls @ 0x56176842cb40] Opening '/config/data/transcodes/fe84cfad02ad670f2aa0ca854e7ba97b81.ts' for writing
[hls @ 0x56176842cb40] Opening '/config/data/transcodes/fe84cfad02ad670f2aa0ca854e7ba97b82.ts' for writing
[hls @ 0x56176842cb40] Opening '/config/data/transcodes/fe84cfad02ad670f2aa0ca854e7ba97b83.ts' for writing
[hls @ 0x56176842cb40] Opening '/config/data/transcodes/fe84cfad02ad670f2aa0ca854e7ba97b84.ts' for writing
[hls @ 0x56176842cb40] Opening '/config/data/transcodes/fe84cfad02ad670f2aa0ca854e7ba97b85.ts' for writing
[hls @ 0x56176842cb40] Opening '/config/data/transcodes/fe84cfad02ad670f2aa0ca854e7ba97b86.ts' for writing
[hls @ 0x56176842cb40] Opening '/config/data/transcodes/fe84cfad02ad670f2aa0ca854e7ba97b87.ts' for writing
[hls @ 0x56176842cb40] Opening '/config/data/transcodes/fe84cfad02ad670f2aa0ca854e7ba97b88.ts' for writing
[hls @ 0x56176842cb40] Opening '/config/data/transcodes/fe84cfad02ad670f2aa0ca854e7ba97b89.ts' for writing
[hls @ 0x56176842cb40] Opening '/config/data/transcodes/fe84cfad02ad670f2aa0ca854e7ba97b90.ts' for writing
[hls @ 0x56176842cb40] Opening '/config/data/transcodes/fe84cfad02ad670f2aa0ca854e7ba97b91.ts' for writing
[hls @ 0x56176842cb40] Opening '/config/data/transcodes/fe84cfad02ad670f2aa0ca854e7ba97b92.ts' for writing
[hls @ 0x56176842cb40] Opening '/config/data/transcodes/fe84cfad02ad670f2aa0ca854e7ba97b93.ts' for writing
[hls @ 0x56176842cb40] Opening '/config/data/transcodes/fe84cfad02ad670f2aa0ca854e7ba97b94.ts' for writing
[hls @ 0x56176842cb40] Opening '/config/data/transcodes/fe84cfad02ad670f2aa0ca854e7ba97b95.ts' for writing
[hls @ 0x56176842cb40] Opening '/config/data/transcodes/fe84cfad02ad670f2aa0ca854e7ba97b96.ts' for writing
[hls @ 0x56176842cb40] Opening '/config/data/transcodes/fe84cfad02ad670f2aa0ca854e7ba97b97.ts' for writing
[hls @ 0x56176842cb40] Opening '/config/data/transcodes/fe84cfad02ad670f2aa0ca854e7ba97b98.ts' for writing
[hls @ 0x56176842cb40] Opening '/config/data/transcodes/fe84cfad02ad670f2aa0ca854e7ba97b99.ts' for writing
[hls @ 0x56176842cb40] Opening '/config/data/transcodes/fe84cfad02ad670f2aa0ca854e7ba97b100.ts' for writing
[hls @ 0x56176842cb40] Opening '/config/data/transcodes/fe84cfad02ad670f2aa0ca854e7ba97b101.ts' for writing
[hls @ 0x56176842cb40] Opening '/config/data/transcodes/fe84cfad02ad670f2aa0ca854e7ba97b102.ts' for writing
[hls @ 0x56176842cb40] Opening '/config/data/transcodes/fe84cfad02ad670f2aa0ca854e7ba97b103.ts' for writing
[hls @ 0x56176842cb40] Opening '/config/data/transcodes/fe84cfad02ad670f2aa0ca854e7ba97b104.ts' for writing
[hls @ 0x56176842cb40] Opening '/config/data/transcodes/fe84cfad02ad670f2aa0ca854e7ba97b105.ts' for writing
[hls @ 0x56176842cb40] Opening '/config/data/transcodes/fe84cfad02ad670f2aa0ca854e7ba97b106.ts' for writing
[hls @ 0x56176842cb40] Opening '/config/data/transcodes/fe84cfad02ad670f2aa0ca854e7ba97b107.ts' for writing
[hls @ 0x56176842cb40] Opening '/config/data/transcodes/fe84cfad02ad670f2aa0ca854e7ba97b108.ts' for writing
[hls @ 0x56176842cb40] Opening '/config/data/transcodes/fe84cfad02ad670f2aa0ca854e7ba97b109.ts' for writing
frame=33280 fps=33233 q=-1.0 size=N/A time=00:11:05.57 bitrate=N/A speed= 665x    
[hls @ 0x56176842cb40] Opening '/config/data/transcodes/fe84cfad02ad670f2aa0ca854e7ba97b110.ts' for writing
[hls @ 0x56176842cb40] Opening '/config/data/transcodes/fe84cfad02ad670f2aa0ca854e7ba97b111.ts' for writing
[hls @ 0x56176842cb40] Opening '/config/data/transcodes/fe84cfad02ad670f2aa0ca854e7ba97b112.ts' for writing
[hls @ 0x56176842cb40] Opening '/config/data/transcodes/fe84cfad02ad670f2aa0ca854e7ba97b113.ts' for writing
[hls @ 0x56176842cb40] Opening '/config/data/transcodes/fe84cfad02ad670f2aa0ca854e7ba97b114.ts' for writing
[hls @ 0x56176842cb40] Opening '/config/data/transcodes/fe84cfad02ad670f2aa0ca854e7ba97b115.ts' for writing
[hls @ 0x56176842cb40] Opening '/config/data/transcodes/fe84cfad02ad670f2aa0ca854e7ba97b116.ts' for writing
[hls @ 0x56176842cb40] Opening '/config/data/transcodes/fe84cfad02ad670f2aa0ca854e7ba97b117.ts' for writing
[hls @ 0x56176842cb40] Opening '/config/data/transcodes/fe84cfad02ad670f2aa0ca854e7ba97b118.ts' for writing
[hls @ 0x56176842cb40] Opening '/config/data/transcodes/fe84cfad02ad670f2aa0ca854e7ba97b119.ts' for writing
[hls @ 0x56176842cb40] Opening '/config/data/transcodes/fe84cfad02ad670f2aa0ca854e7ba97b120.ts' for writing
[hls @ 0x56176842cb40] Opening '/config/data/transcodes/fe84cfad02ad670f2aa0ca854e7ba97b121.ts' for writing
[hls @ 0x56176842cb40] Opening '/config/data/transcodes/fe84cfad02ad670f2aa0ca854e7ba97b122.ts' for writing
[hls @ 0x56176842cb40] Opening '/config/data/transcodes/fe84cfad02ad670f2aa0ca854e7ba97b123.ts' for writing
[hls @ 0x56176842cb40] Opening '/config/data/transcodes/fe84cfad02ad670f2aa0ca854e7ba97b124.ts' for writing
[hls @ 0x56176842cb40] Opening '/config/data/transcodes/fe84cfad02ad670f2aa0ca854e7ba97b125.ts' for writing
[hls @ 0x56176842cb40] Opening '/config/data/transcodes/fe84cfad02ad670f2aa0ca854e7ba97b126.ts' for writing
[hls @ 0x56176842cb40] Opening '/config/data/transcodes/fe84cfad02ad670f2aa0ca854e7ba97b127.ts' for writing
[hls @ 0x56176842cb40] Opening '/config/data/transcodes/fe84cfad02ad670f2aa0ca854e7ba97b128.ts' for writing
[hls @ 0x56176842cb40] Opening '/config/data/transcodes/fe84cfad02ad670f2aa0ca854e7ba97b129.ts' for writing
[hls @ 0x56176842cb40] Opening '/config/data/transcodes/fe84cfad02ad670f2aa0ca854e7ba97b130.ts' for writing
[hls @ 0x56176842cb40] Opening '/config/data/transcodes/fe84cfad02ad670f2aa0ca854e7ba97b131.ts' for writing
[hls @ 0x56176842cb40] Opening '/config/data/transcodes/fe84cfad02ad670f2aa0ca854e7ba97b132.ts' for writing
[hls @ 0x56176842cb40] Opening '/config/data/transcodes/fe84cfad02ad670f2aa0ca854e7ba97b133.ts' for writing
[hls @ 0x56176842cb40] Opening '/config/data/transcodes/fe84cfad02ad670f2aa0ca854e7ba97b134.ts' for writing
[hls @ 0x56176842cb40] Opening '/config/data/transcodes/fe84cfad02ad670f2aa0ca854e7ba97b135.ts' for writing
[hls @ 0x56176842cb40] Opening '/config/data/transcodes/fe84cfad02ad670f2aa0ca854e7ba97b136.ts' for writing
[hls @ 0x56176842cb40] Opening '/config/data/transcodes/fe84cfad02ad670f2aa0ca854e7ba97b137.ts' for writing
[hls @ 0x56176842cb40] Opening '/config/data/transcodes/fe84cfad02ad670f2aa0ca854e7ba97b138.ts' for writing
[hls @ 0x56176842cb40] Opening '/config/data/transcodes/fe84cfad02ad670f2aa0ca854e7ba97b139.ts' for writing
[hls @ 0x56176842cb40] Opening '/config/data/transcodes/fe84cfad02ad670f2aa0ca854e7ba97b140.ts' for writing
[hls @ 0x56176842cb40] Opening '/config/data/transcodes/fe84cfad02ad670f2aa0ca854e7ba97b141.ts' for writing
[hls @ 0x56176842cb40] Opening '/config/data/transcodes/fe84cfad02ad670f2aa0ca854e7ba97b142.ts' for writing
[hls @ 0x56176842cb40] Opening '/config/data/transcodes/fe84cfad02ad670f2aa0ca854e7ba97b143.ts' for writing
[hls @ 0x56176842cb40] Opening '/config/data/transcodes/fe84cfad02ad670f2aa0ca854e7ba97b144.ts' for writing
[hls @ 0x56176842cb40] Opening '/config/data/transcodes/fe84cfad02ad670f2aa0ca854e7ba97b145.ts' for writing
[hls @ 0x56176842cb40] Opening '/config/data/transcodes/fe84cfad02ad670f2aa0ca854e7ba97b146.ts' for writing
[hls @ 0x56176842cb40] Opening '/config/data/transcodes/fe84cfad02ad670f2aa0ca854e7ba97b147.ts' for writing
[hls @ 0x56176842cb40] Opening '/config/data/transcodes/fe84cfad02ad670f2aa0ca854e7ba97b148.ts' for writing
[hls @ 0x56176842cb40] Opening '/config/data/transcodes/fe84cfad02ad670f2aa0ca854e7ba97b149.ts' for writing
[hls @ 0x56176842cb40] Opening '/config/data/transcodes/fe84cfad02ad670f2aa0ca854e7ba97b150.ts' for writing
[hls @ 0x56176842cb40] Opening '/config/data/transcodes/fe84cfad02ad670f2aa0ca854e7ba97b151.ts' for writing
[hls @ 0x56176842cb40] Opening '/config/data/transcodes/fe84cfad02ad670f2aa0ca854e7ba97b152.ts' for writing
[hls @ 0x56176842cb40] Opening '/config/data/transcodes/fe84cfad02ad670f2aa0ca854e7ba97b153.ts' for writing
[hls @ 0x56176842cb40] Opening '/config/data/transcodes/fe84cfad02ad670f2aa0ca854e7ba97b154.ts' for writing
[hls @ 0x56176842cb40] Opening '/config/data/transcodes/fe84cfad02ad670f2aa0ca854e7ba97b155.ts' for writing
[hls @ 0x56176842cb40] Opening '/config/data/transcodes/fe84cfad02ad670f2aa0ca854e7ba97b156.ts' for writing
[hls @ 0x56176842cb40] Opening '/config/data/transcodes/fe84cfad02ad670f2aa0ca854e7ba97b157.ts' for writing
[hls @ 0x56176842cb40] Opening '/config/data/transcodes/fe84cfad02ad670f2aa0ca854e7ba97b158.ts' for writing
[hls @ 0x56176842cb40] Opening '/config/data/transcodes/fe84cfad02ad670f2aa0ca854e7ba97b159.ts' for writing
[hls @ 0x56176842cb40] Opening '/config/data/transcodes/fe84cfad02ad670f2aa0ca854e7ba97b160.ts' for writing
[hls @ 0x56176842cb40] Opening '/config/data/transcodes/fe84cfad02ad670f2aa0ca854e7ba97b161.ts' for writing
[hls @ 0x56176842cb40] Opening '/config/data/transcodes/fe84cfad02ad670f2aa0ca854e7ba97b162.ts' for writing
[hls @ 0x56176842cb40] Opening '/config/data/transcodes/fe84cfad02ad670f2aa0ca854e7ba97b163.ts' for writing
[hls @ 0x56176842cb40] Opening '/config/data/transcodes/fe84cfad02ad670f2aa0ca854e7ba97b164.ts' for writing
[hls @ 0x56176842cb40] Opening '/config/data/transcodes/fe84cfad02ad670f2aa0ca854e7ba97b165.ts' for writing
[hls @ 0x56176842cb40] Opening '/config/data/transcodes/fe84cfad02ad670f2aa0ca854e7ba97b166.ts' for writing
[hls @ 0x56176842cb40] Opening '/config/data/transcodes/fe84cfad02ad670f2aa0ca854e7ba97b167.ts' for writing
frame=50456 fps=33535 q=-1.0 size=N/A time=00:16:49.08 bitrate=N/A speed= 671x    
[hls @ 0x56176842cb40] Opening '/config/data/transcodes/fe84cfad02ad670f2aa0ca854e7ba97b168.ts' for writing
[hls @ 0x56176842cb40] Opening '/config/data/transcodes/fe84cfad02ad670f2aa0ca854e7ba97b169.ts' for writing
[hls @ 0x56176842cb40] Opening '/config/data/transcodes/fe84cfad02ad670f2aa0ca854e7ba97b170.ts' for writing
[hls @ 0x56176842cb40] Opening '/config/data/transcodes/fe84cfad02ad670f2aa0ca854e7ba97b171.ts' for writing
[hls @ 0x56176842cb40] Opening '/config/data/transcodes/fe84cfad02ad670f2aa0ca854e7ba97b172.ts' for writing
[hls @ 0x56176842cb40] Opening '/config/data/transcodes/fe84cfad02ad670f2aa0ca854e7ba97b173.ts' for writing
[hls @ 0x56176842cb40] Opening '/config/data/transcodes/fe84cfad02ad670f2aa0ca854e7ba97b174.ts' for writing
[hls @ 0x56176842cb40] Opening '/config/data/transcodes/fe84cfad02ad670f2aa0ca854e7ba97b175.ts' for writing
[hls @ 0x56176842cb40] Opening '/config/data/transcodes/fe84cfad02ad670f2aa0ca854e7ba97b176.ts' for writing
[hls @ 0x56176842cb40] Opening '/config/data/transcodes/fe84cfad02ad670f2aa0ca854e7ba97b177.ts' for writing
[hls @ 0x56176842cb40] Opening '/config/data/transcodes/fe84cfad02ad670f2aa0ca854e7ba97b178.ts' for writing
[hls @ 0x56176842cb40] Opening '/config/data/transcodes/fe84cfad02ad670f2aa0ca854e7ba97b179.ts' for writing
[hls @ 0x56176842cb40] Opening '/config/data/transcodes/fe84cfad02ad670f2aa0ca854e7ba97b180.ts' for writing
[hls @ 0x56176842cb40] Opening '/config/data/transcodes/fe84cfad02ad670f2aa0ca854e7ba97b181.ts' for writing
[hls @ 0x56176842cb40] Opening '/config/data/transcodes/fe84cfad02ad670f2aa0ca854e7ba97b182.ts' for writing
[hls @ 0x56176842cb40] Opening '/config/data/transcodes/fe84cfad02ad670f2aa0ca854e7ba97b183.ts' for writing
[hls @ 0x56176842cb40] Opening '/config/data/transcodes/fe84cfad02ad670f2aa0ca854e7ba97b184.ts' for writing
[hls @ 0x56176842cb40] Opening '/config/data/transcodes/fe84cfad02ad670f2aa0ca854e7ba97b185.ts' for writing
[hls @ 0x56176842cb40] Opening '/config/data/transcodes/fe84cfad02ad670f2aa0ca854e7ba97b186.ts' for writing
[hls @ 0x56176842cb40] Opening '/config/data/transcodes/fe84cfad02ad670f2aa0ca854e7ba97b187.ts' for writing
[hls @ 0x56176842cb40] Opening '/config/data/transcodes/fe84cfad02ad670f2aa0ca854e7ba97b188.ts' for writing
[hls @ 0x56176842cb40] Opening '/config/data/transcodes/fe84cfad02ad670f2aa0ca854e7ba97b189.ts' for writing
[hls @ 0x56176842cb40] Opening '/config/data/transcodes/fe84cfad02ad670f2aa0ca854e7ba97b190.ts' for writing
[hls @ 0x56176842cb40] Opening '/config/data/transcodes/fe84cfad02ad670f2aa0ca854e7ba97b191.ts' for writing
[hls @ 0x56176842cb40] Opening '/config/data/transcodes/fe84cfad02ad670f2aa0ca854e7ba97b192.ts' for writing
[hls @ 0x56176842cb40] Opening '/config/data/transcodes/fe84cfad02ad670f2aa0ca854e7ba97b193.ts' for writing
[hls @ 0x56176842cb40] Opening '/config/data/transcodes/fe84cfad02ad670f2aa0ca854e7ba97b194.ts' for writing
[hls @ 0x56176842cb40] Opening '/config/data/transcodes/fe84cfad02ad670f2aa0ca854e7ba97b195.ts' for writing
[hls @ 0x56176842cb40] Opening '/config/data/transcodes/fe84cfad02ad670f2aa0ca854e7ba97b196.ts' for writing
[hls @ 0x56176842cb40] Opening '/config/data/transcodes/fe84cfad02ad670f2aa0ca854e7ba97b197.ts' for writing
[hls @ 0x56176842cb40] Opening '/config/data/transcodes/fe84cfad02ad670f2aa0ca854e7ba97b198.ts' for writing
[hls @ 0x56176842cb40] Opening '/config/data/transcodes/fe84cfad02ad670f2aa0ca854e7ba97b199.ts' for writing
[hls @ 0x56176842cb40] Opening '/config/data/transcodes/fe84cfad02ad670f2aa0ca854e7ba97b200.ts' for writing
[hls @ 0x56176842cb40] Opening '/config/data/transcodes/fe84cfad02ad670f2aa0ca854e7ba97b201.ts' for writing
[hls @ 0x56176842cb40] Opening '/config/data/transcodes/fe84cfad02ad670f2aa0ca854e7ba97b202.ts' for writing
[hls @ 0x56176842cb40] Opening '/config/data/transcodes/fe84cfad02ad670f2aa0ca854e7ba97b203.ts' for writing
[hls @ 0x56176842cb40] Opening '/config/data/transcodes/fe84cfad02ad670f2aa0ca854e7ba97b204.ts' for writing
[hls @ 0x56176842cb40] Opening '/config/data/transcodes/fe84cfad02ad670f2aa0ca854e7ba97b205.ts' for writing
[hls @ 0x56176842cb40] Opening '/config/data/transcodes/fe84cfad02ad670f2aa0ca854e7ba97b206.ts' for writing
[hls @ 0x56176842cb40] Opening '/config/data/transcodes/fe84cfad02ad670f2aa0ca854e7ba97b207.ts' for writing
[hls @ 0x56176842cb40] Opening '/config/data/transcodes/fe84cfad02ad670f2aa0ca854e7ba97b208.ts' for writing
[hls @ 0x56176842cb40] Opening '/config/data/transcodes/fe84cfad02ad670f2aa0ca854e7ba97b209.ts' for writing
[hls @ 0x56176842cb40] Opening '/config/data/transcodes/fe84cfad02ad670f2aa0ca854e7ba97b210.ts' for writing
[hls @ 0x56176842cb40] Opening '/config/data/transcodes/fe84cfad02ad670f2aa0ca854e7ba97b211.ts' for writing
[hls @ 0x56176842cb40] Opening '/config/data/transcodes/fe84cfad02ad670f2aa0ca854e7ba97b212.ts' for writing
[hls @ 0x56176842cb40] Opening '/config/data/transcodes/fe84cfad02ad670f2aa0ca854e7ba97b213.ts' for writing
[hls @ 0x56176842cb40] Opening '/config/data/transcodes/fe84cfad02ad670f2aa0ca854e7ba97b214.ts' for writing
[hls @ 0x56176842cb40] Opening '/config/data/transcodes/fe84cfad02ad670f2aa0ca854e7ba97b215.ts' for writing
[hls @ 0x56176842cb40] Opening '/config/data/transcodes/fe84cfad02ad670f2aa0ca854e7ba97b216.ts' for writing
[hls @ 0x56176842cb40] Opening '/config/data/transcodes/fe84cfad02ad670f2aa0ca854e7ba97b217.ts' for writing
[hls @ 0x56176842cb40] Opening '/config/data/transcodes/fe84cfad02ad670f2aa0ca854e7ba97b218.ts' for writing
[hls @ 0x56176842cb40] Opening '/config/data/transcodes/fe84cfad02ad670f2aa0ca854e7ba97b219.ts' for writing
[hls @ 0x56176842cb40] Opening '/config/data/transcodes/fe84cfad02ad670f2aa0ca854e7ba97b220.ts' for writing
[hls @ 0x56176842cb40] Opening '/config/data/transcodes/fe84cfad02ad670f2aa0ca854e7ba97b221.ts' for writing
[hls @ 0x56176842cb40] Opening '/config/data/transcodes/fe84cfad02ad670f2aa0ca854e7ba97b222.ts' for writing
frame=67215 fps=33531 q=-1.0 size=N/A time=00:22:24.27 bitrate=N/A speed= 671x    
[hls @ 0x56176842cb40] Opening '/config/data/transcodes/fe84cfad02ad670f2aa0ca854e7ba97b223.ts' for writing
[hls @ 0x56176842cb40] Opening '/config/data/transcodes/fe84cfad02ad670f2aa0ca854e7ba97b224.ts' for writing
[hls @ 0x56176842cb40] Opening '/config/data/transcodes/fe84cfad02ad670f2aa0ca854e7ba97b225.ts' for writing
[hls @ 0x56176842cb40] Opening '/config/data/transcodes/fe84cfad02ad670f2aa0ca854e7ba97b226.ts' for writing
[hls @ 0x56176842cb40] Opening '/config/data/transcodes/fe84cfad02ad670f2aa0ca854e7ba97b227.ts' for writing
[hls @ 0x56176842cb40] Opening '/config/data/transcodes/fe84cfad02ad670f2aa0ca854e7ba97b228.ts' for writing
[hls @ 0x56176842cb40] Opening '/config/data/transcodes/fe84cfad02ad670f2aa0ca854e7ba97b229.ts' for writing
[hls @ 0x56176842cb40] Opening '/config/data/transcodes/fe84cfad02ad670f2aa0ca854e7ba97b230.ts' for writing
[hls @ 0x56176842cb40] Opening '/config/data/transcodes/fe84cfad02ad670f2aa0ca854e7ba97b231.ts' for writing
[hls @ 0x56176842cb40] Opening '/config/data/transcodes/fe84cfad02ad670f2aa0ca854e7ba97b232.ts' for writing
[hls @ 0x56176842cb40] Opening '/config/data/transcodes/fe84cfad02ad670f2aa0ca854e7ba97b233.ts' for writing
[hls @ 0x56176842cb40] Opening '/config/data/transcodes/fe84cfad02ad670f2aa0ca854e7ba97b234.ts' for writing
[hls @ 0x56176842cb40] Opening '/config/data/transcodes/fe84cfad02ad670f2aa0ca854e7ba97b235.ts' for writing
[hls @ 0x56176842cb40] Opening '/config/data/transcodes/fe84cfad02ad670f2aa0ca854e7ba97b236.ts' for writing
[hls @ 0x56176842cb40] Opening '/config/data/transcodes/fe84cfad02ad670f2aa0ca854e7ba97b237.ts' for writing
[hls @ 0x56176842cb40] Opening '/config/data/transcodes/fe84cfad02ad670f2aa0ca854e7ba97b238.ts' for writing
[hls @ 0x56176842cb40] Opening '/config/data/transcodes/fe84cfad02ad670f2aa0ca854e7ba97b239.ts' for writing
[hls @ 0x56176842cb40] Opening '/config/data/transcodes/fe84cfad02ad670f2aa0ca854e7ba97b240.ts' for writing
[hls @ 0x56176842cb40] Opening '/config/data/transcodes/fe84cfad02ad670f2aa0ca854e7ba97b241.ts' for writing
[hls @ 0x56176842cb40] Opening '/config/data/transcodes/fe84cfad02ad670f2aa0ca854e7ba97b242.ts' for writing
[hls @ 0x56176842cb40] Opening '/config/data/transcodes/fe84cfad02ad670f2aa0ca854e7ba97b243.ts' for writing
[hls @ 0x56176842cb40] Opening '/config/data/transcodes/fe84cfad02ad670f2aa0ca854e7ba97b244.ts' for writing
[hls @ 0x56176842cb40] Opening '/config/data/transcodes/fe84cfad02ad670f2aa0ca854e7ba97b245.ts' for writing
[hls @ 0x56176842cb40] Opening '/config/data/transcodes/fe84cfad02ad670f2aa0ca854e7ba97b246.ts' for writing
[hls @ 0x56176842cb40] Opening '/config/data/transcodes/fe84cfad02ad670f2aa0ca854e7ba97b247.ts' for writing
[hls @ 0x56176842cb40] Opening '/config/data/transcodes/fe84cfad02ad670f2aa0ca854e7ba97b248.ts' for writing
[hls @ 0x56176842cb40] Opening '/config/data/transcodes/fe84cfad02ad670f2aa0ca854e7ba97b249.ts' for writing
[hls @ 0x56176842cb40] Opening '/config/data/transcodes/fe84cfad02ad670f2aa0ca854e7ba97b250.ts' for writing
[hls @ 0x56176842cb40] Opening '/config/data/transcodes/fe84cfad02ad670f2aa0ca854e7ba97b251.ts' for writing
[hls @ 0x56176842cb40] Opening '/config/data/transcodes/fe84cfad02ad670f2aa0ca854e7ba97b252.ts' for writing
[hls @ 0x56176842cb40] Opening '/config/data/transcodes/fe84cfad02ad670f2aa0ca854e7ba97b253.ts' for writing
[hls @ 0x56176842cb40] Opening '/config/data/transcodes/fe84cfad02ad670f2aa0ca854e7ba97b254.ts' for writing
[hls @ 0x56176842cb40] Opening '/config/data/transcodes/fe84cfad02ad670f2aa0ca854e7ba97b255.ts' for writing
[hls @ 0x56176842cb40] Opening '/config/data/transcodes/fe84cfad02ad670f2aa0ca854e7ba97b256.ts' for writing
[hls @ 0x56176842cb40] Opening '/config/data/transcodes/fe84cfad02ad670f2aa0ca854e7ba97b257.ts' for writing
[hls @ 0x56176842cb40] Opening '/config/data/transcodes/fe84cfad02ad670f2aa0ca854e7ba97b258.ts' for writing
[hls @ 0x56176842cb40] Opening '/config/data/transcodes/fe84cfad02ad670f2aa0ca854e7ba97b259.ts' for writing
[hls @ 0x56176842cb40] Opening '/config/data/transcodes/fe84cfad02ad670f2aa0ca854e7ba97b260.ts' for writing
[hls @ 0x56176842cb40] Opening '/config/data/transcodes/fe84cfad02ad670f2aa0ca854e7ba97b261.ts' for writing
[hls @ 0x56176842cb40] Opening '/config/data/transcodes/fe84cfad02ad670f2aa0ca854e7ba97b262.ts' for writing
[hls @ 0x56176842cb40] Opening '/config/data/transcodes/fe84cfad02ad670f2aa0ca854e7ba97b263.ts' for writing
[hls @ 0x56176842cb40] Opening '/config/data/transcodes/fe84cfad02ad670f2aa0ca854e7ba97b264.ts' for writing
[hls @ 0x56176842cb40] Opening '/config/data/transcodes/fe84cfad02ad670f2aa0ca854e7ba97b265.ts' for writing
[hls @ 0x56176842cb40] Opening '/config/data/transcodes/fe84cfad02ad670f2aa0ca854e7ba97b266.ts' for writing
[hls @ 0x56176842cb40] Opening '/config/data/transcodes/fe84cfad02ad670f2aa0ca854e7ba97b267.ts' for writing
[hls @ 0x56176842cb40] Opening '/config/data/transcodes/fe84cfad02ad670f2aa0ca854e7ba97b268.ts' for writing
[hls @ 0x56176842cb40] Opening '/config/data/transcodes/fe84cfad02ad670f2aa0ca854e7ba97b269.ts' for writing
[hls @ 0x56176842cb40] Opening '/config/data/transcodes/fe84cfad02ad670f2aa0ca854e7ba97b270.ts' for writing
[hls @ 0x56176842cb40] Opening '/config/data/transcodes/fe84cfad02ad670f2aa0ca854e7ba97b271.ts' for writing
[hls @ 0x56176842cb40] Opening '/config/data/transcodes/fe84cfad02ad670f2aa0ca854e7ba97b272.ts' for writing
[hls @ 0x56176842cb40] Opening '/config/data/transcodes/fe84cfad02ad670f2aa0ca854e7ba97b273.ts' for writing
[hls @ 0x56176842cb40] Opening '/config/data/transcodes/fe84cfad02ad670f2aa0ca854e7ba97b274.ts' for writing
[hls @ 0x56176842cb40] Opening '/config/data/transcodes/fe84cfad02ad670f2aa0ca854e7ba97b275.ts' for writing
[hls @ 0x56176842cb40] Opening '/config/data/transcodes/fe84cfad02ad670f2aa0ca854e7ba97b276.ts' for writing
[hls @ 0x56176842cb40] Opening '/config/data/transcodes/fe84cfad02ad670f2aa0ca854e7ba97b277.ts' for writing
[hls @ 0x56176842cb40] Opening '/config/data/transcodes/fe84cfad02ad670f2aa0ca854e7ba97b278.ts' for writing
[hls @ 0x56176842cb40] Opening '/config/data/transcodes/fe84cfad02ad670f2aa0ca854e7ba97b279.ts' for writing
[hls @ 0x56176842cb40] Opening '/config/data/transcodes/fe84cfad02ad670f2aa0ca854e7ba97b280.ts' for writing
[hls @ 0x56176842cb40] Opening '/config/data/transcodes/fe84cfad02ad670f2aa0ca854e7ba97b281.ts' for writing
[hls @ 0x56176842cb40] Opening '/config/data/transcodes/fe84cfad02ad670f2aa0ca854e7ba97b282.ts' for writing
[hls @ 0x56176842cb40] Opening '/config/data/transcodes/fe84cfad02ad670f2aa0ca854e7ba97b283.ts' for writing
[hls @ 0x56176842cb40] Opening '/config/data/transcodes/fe84cfad02ad670f2aa0ca854e7ba97b284.ts' for writing
[hls @ 0x56176842cb40] Opening '/config/data/transcodes/fe84cfad02ad670f2aa0ca854e7ba97b285.ts' for writing
[hls @ 0x56176842cb40] Opening '/config/data/transcodes/fe84cfad02ad670f2aa0ca854e7ba97b286.ts' for writing
[hls @ 0x56176842cb40] Opening '/config/data/transcodes/fe84cfad02ad670f2aa0ca854e7ba97b287.ts' for writing
frame=86515 fps=34543 q=-1.0 size=N/A time=00:28:50.28 bitrate=N/A speed= 691x    
[hls @ 0x56176842cb40] Opening '/config/data/transcodes/fe84cfad02ad670f2aa0ca854e7ba97b288.ts' for writing
[hls @ 0x56176842cb40] Opening '/config/data/transcodes/fe84cfad02ad670f2aa0ca854e7ba97b289.ts' for writing
[hls @ 0x56176842cb40] Opening '/config/data/transcodes/fe84cfad02ad670f2aa0ca854e7ba97b290.ts' for writing
[hls @ 0x56176842cb40] Opening '/config/data/transcodes/fe84cfad02ad670f2aa0ca854e7ba97b291.ts' for writing
[hls @ 0x56176842cb40] Opening '/config/data/transcodes/fe84cfad02ad670f2aa0ca854e7ba97b292.ts' for writing
[hls @ 0x56176842cb40] Opening '/config/data/transcodes/fe84cfad02ad670f2aa0ca854e7ba97b293.ts' for writing
[hls @ 0x56176842cb40] Opening '/config/data/transcodes/fe84cfad02ad670f2aa0ca854e7ba97b294.ts' for writing
[hls @ 0x56176842cb40] Opening '/config/data/transcodes/fe84cfad02ad670f2aa0ca854e7ba97b295.ts' for writing
[hls @ 0x56176842cb40] Opening '/config/data/transcodes/fe84cfad02ad670f2aa0ca854e7ba97b296.ts' for writing
[hls @ 0x56176842cb40] Opening '/config/data/transcodes/fe84cfad02ad670f2aa0ca854e7ba97b297.ts' for writing
[hls @ 0x56176842cb40] Opening '/config/data/transcodes/fe84cfad02ad670f2aa0ca854e7ba97b298.ts' for writing
[hls @ 0x56176842cb40] Opening '/config/data/transcodes/fe84cfad02ad670f2aa0ca854e7ba97b299.ts' for writing
[hls @ 0x56176842cb40] Opening '/config/data/transcodes/fe84cfad02ad670f2aa0ca854e7ba97b300.ts' for writing
[hls @ 0x56176842cb40] Opening '/config/data/transcodes/fe84cfad02ad670f2aa0ca854e7ba97b301.ts' for writing
[hls @ 0x56176842cb40] Opening '/config/data/transcodes/fe84cfad02ad670f2aa0ca854e7ba97b302.ts' for writing
[hls @ 0x56176842cb40] Opening '/config/data/transcodes/fe84cfad02ad670f2aa0ca854e7ba97b303.ts' for writing
[hls @ 0x56176842cb40] Opening '/config/data/transcodes/fe84cfad02ad670f2aa0ca854e7ba97b304.ts' for writing
[hls @ 0x56176842cb40] Opening '/config/data/transcodes/fe84cfad02ad670f2aa0ca854e7ba97b305.ts' for writing
[hls @ 0x56176842cb40] Opening '/config/data/transcodes/fe84cfad02ad670f2aa0ca854e7ba97b306.ts' for writing
[hls @ 0x56176842cb40] Opening '/config/data/transcodes/fe84cfad02ad670f2aa0ca854e7ba97b307.ts' for writing
[hls @ 0x56176842cb40] Opening '/config/data/transcodes/fe84cfad02ad670f2aa0ca854e7ba97b308.ts' for writing
[hls @ 0x56176842cb40] Opening '/config/data/transcodes/fe84cfad02ad670f2aa0ca854e7ba97b309.ts' for writing
[hls @ 0x56176842cb40] Opening '/config/data/transcodes/fe84cfad02ad670f2aa0ca854e7ba97b310.ts' for writing
[hls @ 0x56176842cb40] Opening '/config/data/transcodes/fe84cfad02ad670f2aa0ca854e7ba97b311.ts' for writing
[hls @ 0x56176842cb40] Opening '/config/data/transcodes/fe84cfad02ad670f2aa0ca854e7ba97b312.ts' for writing
[hls @ 0x56176842cb40] Opening '/config/data/transcodes/fe84cfad02ad670f2aa0ca854e7ba97b313.ts' for writing
[hls @ 0x56176842cb40] Opening '/config/data/transcodes/fe84cfad02ad670f2aa0ca854e7ba97b314.ts' for writing
[hls @ 0x56176842cb40] Opening '/config/data/transcodes/fe84cfad02ad670f2aa0ca854e7ba97b315.ts' for writing
[hls @ 0x56176842cb40] Opening '/config/data/transcodes/fe84cfad02ad670f2aa0ca854e7ba97b316.ts' for writing
[hls @ 0x56176842cb40] Opening '/config/data/transcodes/fe84cfad02ad670f2aa0ca854e7ba97b317.ts' for writing
[hls @ 0x56176842cb40] Opening '/config/data/transcodes/fe84cfad02ad670f2aa0ca854e7ba97b318.ts' for writing
[hls @ 0x56176842cb40] Opening '/config/data/transcodes/fe84cfad02ad670f2aa0ca854e7ba97b319.ts' for writing
[hls @ 0x56176842cb40] Opening '/config/data/transcodes/fe84cfad02ad670f2aa0ca854e7ba97b320.ts' for writing
[hls @ 0x56176842cb40] Opening '/config/data/transcodes/fe84cfad02ad670f2aa0ca854e7ba97b321.ts' for writing
[hls @ 0x56176842cb40] Opening '/config/data/transcodes/fe84cfad02ad670f2aa0ca854e7ba97b322.ts' for writing
[hls @ 0x56176842cb40] Opening '/config/data/transcodes/fe84cfad02ad670f2aa0ca854e7ba97b323.ts' for writing
[hls @ 0x56176842cb40] Opening '/config/data/transcodes/fe84cfad02ad670f2aa0ca854e7ba97b324.ts' for writing
[hls @ 0x56176842cb40] Opening '/config/data/transcodes/fe84cfad02ad670f2aa0ca854e7ba97b325.ts' for writing
[hls @ 0x56176842cb40] Opening '/config/data/transcodes/fe84cfad02ad670f2aa0ca854e7ba97b326.ts' for writing
[hls @ 0x56176842cb40] Opening '/config/data/transcodes/fe84cfad02ad670f2aa0ca854e7ba97b327.ts' for writing
[hls @ 0x56176842cb40] Opening '/config/data/transcodes/fe84cfad02ad670f2aa0ca854e7ba97b328.ts' for writing
[hls @ 0x56176842cb40] Opening '/config/data/transcodes/fe84cfad02ad670f2aa0ca854e7ba97b329.ts' for writing
[hls @ 0x56176842cb40] Opening '/config/data/transcodes/fe84cfad02ad670f2aa0ca854e7ba97b330.ts' for writing
[hls @ 0x56176842cb40] Opening '/config/data/transcodes/fe84cfad02ad670f2aa0ca854e7ba97b331.ts' for writing
[hls @ 0x56176842cb40] Opening '/config/data/transcodes/fe84cfad02ad670f2aa0ca854e7ba97b332.ts' for writing
[hls @ 0x56176842cb40] Opening '/config/data/transcodes/fe84cfad02ad670f2aa0ca854e7ba97b333.ts' for writing
[hls @ 0x56176842cb40] Opening '/config/data/transcodes/fe84cfad02ad670f2aa0ca854e7ba97b334.ts' for writing
[hls @ 0x56176842cb40] Opening '/config/data/transcodes/fe84cfad02ad670f2aa0ca854e7ba97b335.ts' for writing
[hls @ 0x56176842cb40] Opening '/config/data/transcodes/fe84cfad02ad670f2aa0ca854e7ba97b336.ts' for writing
[hls @ 0x56176842cb40] Opening '/config/data/transcodes/fe84cfad02ad670f2aa0ca854e7ba97b337.ts' for writing
[hls @ 0x56176842cb40] Opening '/config/data/transcodes/fe84cfad02ad670f2aa0ca854e7ba97b338.ts' for writing
[hls @ 0x56176842cb40] Opening '/config/data/transcodes/fe84cfad02ad670f2aa0ca854e7ba97b339.ts' for writing
[hls @ 0x56176842cb40] Opening '/config/data/transcodes/fe84cfad02ad670f2aa0ca854e7ba97b340.ts' for writing
[hls @ 0x56176842cb40] Opening '/config/data/transcodes/fe84cfad02ad670f2aa0ca854e7ba97b341.ts' for writing
[hls @ 0x56176842cb40] Opening '/config/data/transcodes/fe84cfad02ad670f2aa0ca854e7ba97b342.ts' for writing
[hls @ 0x56176842cb40] Opening '/config/data/transcodes/fe84cfad02ad670f2aa0ca854e7ba97b343.ts' for writing
[hls @ 0x56176842cb40] Opening '/config/data/transcodes/fe84cfad02ad670f2aa0ca854e7ba97b344.ts' for writing
[hls @ 0x56176842cb40] Opening '/config/data/transcodes/fe84cfad02ad670f2aa0ca854e7ba97b345.ts' for writing
[hls @ 0x56176842cb40] Opening '/config/data/transcodes/fe84cfad02ad670f2aa0ca854e7ba97b346.ts' for writing
[hls @ 0x56176842cb40] Opening '/config/data/transcodes/fe84cfad02ad670f2aa0ca854e7ba97b347.ts' for writing
[hls @ 0x56176842cb40] Opening '/config/data/transcodes/fe84cfad02ad670f2aa0ca854e7ba97b348.ts' for writing
[hls @ 0x56176842cb40] Opening '/config/data/transcodes/fe84cfad02ad670f2aa0ca854e7ba97b349.ts' for writing
[hls @ 0x56176842cb40] Opening '/config/data/transcodes/fe84cfad02ad670f2aa0ca854e7ba97b350.ts' for writing
[hls @ 0x56176842cb40] Opening '/config/data/transcodes/fe84cfad02ad670f2aa0ca854e7ba97b351.ts' for writing
[hls @ 0x56176842cb40] Opening '/config/data/transcodes/fe84cfad02ad670f2aa0ca854e7ba97b352.ts' for writing
[hls @ 0x56176842cb40] Opening '/config/data/transcodes/fe84cfad02ad670f2aa0ca854e7ba97b353.ts' for writing
[hls @ 0x56176842cb40] Opening '/config/data/transcodes/fe84cfad02ad670f2aa0ca854e7ba97b354.ts' for writing
[hls @ 0x56176842cb40] Opening '/config/data/transcodes/fe84cfad02ad670f2aa0ca854e7ba97b355.ts' for writing
[hls @ 0x56176842cb40] Opening '/config/data/transcodes/fe84cfad02ad670f2aa0ca854e7ba97b356.ts' for writing
[hls @ 0x56176842cb40] Opening '/config/data/transcodes/fe84cfad02ad670f2aa0ca854e7ba97b357.ts' for writing
[hls @ 0x56176842cb40] Opening '/config/data/transcodes/fe84cfad02ad670f2aa0ca854e7ba97b358.ts' for writing
frame=107814 fps=35883 q=-1.0 size=N/A time=00:35:56.26 bitrate=N/A speed= 718x    
[hls @ 0x56176842cb40] Opening '/config/data/transcodes/fe84cfad02ad670f2aa0ca854e7ba97b359.ts' for writing
[hls @ 0x56176842cb40] Opening '/config/data/transcodes/fe84cfad02ad670f2aa0ca854e7ba97b360.ts' for writing
[hls @ 0x56176842cb40] Opening '/config/data/transcodes/fe84cfad02ad670f2aa0ca854e7ba97b361.ts' for writing
[hls @ 0x56176842cb40] Opening '/config/data/transcodes/fe84cfad02ad670f2aa0ca854e7ba97b362.ts' for writing
[hls @ 0x56176842cb40] Opening '/config/data/transcodes/fe84cfad02ad670f2aa0ca854e7ba97b363.ts' for writing
[hls @ 0x56176842cb40] Opening '/config/data/transcodes/fe84cfad02ad670f2aa0ca854e7ba97b364.ts' for writing
[hls @ 0x56176842cb40] Opening '/config/data/transcodes/fe84cfad02ad670f2aa0ca854e7ba97b365.ts' for writing
[hls @ 0x56176842cb40] Opening '/config/data/transcodes/fe84cfad02ad670f2aa0ca854e7ba97b366.ts' for writing
[hls @ 0x56176842cb40] Opening '/config/data/transcodes/fe84cfad02ad670f2aa0ca854e7ba97b367.ts' for writing
[hls @ 0x56176842cb40] Opening '/config/data/transcodes/fe84cfad02ad670f2aa0ca854e7ba97b368.ts' for writing
[hls @ 0x56176842cb40] Opening '/config/data/transcodes/fe84cfad02ad670f2aa0ca854e7ba97b369.ts' for writing
[hls @ 0x56176842cb40] Opening '/config/data/transcodes/fe84cfad02ad670f2aa0ca854e7ba97b370.ts' for writing
[hls @ 0x56176842cb40] Opening '/config/data/transcodes/fe84cfad02ad670f2aa0ca854e7ba97b371.ts' for writing
[hls @ 0x56176842cb40] Opening '/config/data/transcodes/fe84cfad02ad670f2aa0ca854e7ba97b372.ts' for writing
[hls @ 0x56176842cb40] Opening '/config/data/transcodes/fe84cfad02ad670f2aa0ca854e7ba97b373.ts' for writing
[hls @ 0x56176842cb40] Opening '/config/data/transcodes/fe84cfad02ad670f2aa0ca854e7ba97b374.ts' for writing
[hls @ 0x56176842cb40] Opening '/config/data/transcodes/fe84cfad02ad670f2aa0ca854e7ba97b375.ts' for writing
[hls @ 0x56176842cb40] Opening '/config/data/transcodes/fe84cfad02ad670f2aa0ca854e7ba97b376.ts' for writing
[hls @ 0x56176842cb40] Opening '/config/data/transcodes/fe84cfad02ad670f2aa0ca854e7ba97b377.ts' for writing
[hls @ 0x56176842cb40] Opening '/config/data/transcodes/fe84cfad02ad670f2aa0ca854e7ba97b378.ts' for writing
[hls @ 0x56176842cb40] Opening '/config/data/transcodes/fe84cfad02ad670f2aa0ca854e7ba97b379.ts' for writing
[hls @ 0x56176842cb40] Opening '/config/data/transcodes/fe84cfad02ad670f2aa0ca854e7ba97b380.ts' for writing
[hls @ 0x56176842cb40] Opening '/config/data/transcodes/fe84cfad02ad670f2aa0ca854e7ba97b381.ts' for writing
[hls @ 0x56176842cb40] Opening '/config/data/transcodes/fe84cfad02ad670f2aa0ca854e7ba97b382.ts' for writing
[hls @ 0x56176842cb40] Opening '/config/data/transcodes/fe84cfad02ad670f2aa0ca854e7ba97b383.ts' for writing
[hls @ 0x56176842cb40] Opening '/config/data/transcodes/fe84cfad02ad670f2aa0ca854e7ba97b384.ts' for writing
[hls @ 0x56176842cb40] Opening '/config/data/transcodes/fe84cfad02ad670f2aa0ca854e7ba97b385.ts' for writing
[hls @ 0x56176842cb40] Opening '/config/data/transcodes/fe84cfad02ad670f2aa0ca854e7ba97b386.ts' for writing
[hls @ 0x56176842cb40] Opening '/config/data/transcodes/fe84cfad02ad670f2aa0ca854e7ba97b387.ts' for writing
[hls @ 0x56176842cb40] Opening '/config/data/transcodes/fe84cfad02ad670f2aa0ca854e7ba97b388.ts' for writing
[hls @ 0x56176842cb40] Opening '/config/data/transcodes/fe84cfad02ad670f2aa0ca854e7ba97b389.ts' for writing
[hls @ 0x56176842cb40] Opening '/config/data/transcodes/fe84cfad02ad670f2aa0ca854e7ba97b390.ts' for writing
[hls @ 0x56176842cb40] Opening '/config/data/transcodes/fe84cfad02ad670f2aa0ca854e7ba97b391.ts' for writing
[hls @ 0x56176842cb40] Opening '/config/data/transcodes/fe84cfad02ad670f2aa0ca854e7ba97b392.ts' for writing
[hls @ 0x56176842cb40] Opening '/config/data/transcodes/fe84cfad02ad670f2aa0ca854e7ba97b393.ts' for writing
[hls @ 0x56176842cb40] Opening '/config/data/transcodes/fe84cfad02ad670f2aa0ca854e7ba97b394.ts' for writing
[hls @ 0x56176842cb40] Opening '/config/data/transcodes/fe84cfad02ad670f2aa0ca854e7ba97b395.ts' for writing
[hls @ 0x56176842cb40] Opening '/config/data/transcodes/fe84cfad02ad670f2aa0ca854e7ba97b396.ts' for writing
[hls @ 0x56176842cb40] Opening '/config/data/transcodes/fe84cfad02ad670f2aa0ca854e7ba97b397.ts' for writing
[hls @ 0x56176842cb40] Opening '/config/data/transcodes/fe84cfad02ad670f2aa0ca854e7ba97b398.ts' for writing
[hls @ 0x56176842cb40] Opening '/config/data/transcodes/fe84cfad02ad670f2aa0ca854e7ba97b399.ts' for writing
[hls @ 0x56176842cb40] Opening '/config/data/transcodes/fe84cfad02ad670f2aa0ca854e7ba97b400.ts' for writing
[hls @ 0x56176842cb40] Opening '/config/data/transcodes/fe84cfad02ad670f2aa0ca854e7ba97b401.ts' for writing
[hls @ 0x56176842cb40] Opening '/config/data/transcodes/fe84cfad02ad670f2aa0ca854e7ba97b402.ts' for writing
[hls @ 0x56176842cb40] Opening '/config/data/transcodes/fe84cfad02ad670f2aa0ca854e7ba97b403.ts' for writing
[hls @ 0x56176842cb40] Opening '/config/data/transcodes/fe84cfad02ad670f2aa0ca854e7ba97b404.ts' for writing
[hls @ 0x56176842cb40] Opening '/config/data/transcodes/fe84cfad02ad670f2aa0ca854e7ba97b405.ts' for writing
[hls @ 0x56176842cb40] Opening '/config/data/transcodes/fe84cfad02ad670f2aa0ca854e7ba97b406.ts' for writing
[hls @ 0x56176842cb40] Opening '/config/data/transcodes/fe84cfad02ad670f2aa0ca854e7ba97b407.ts' for writing
[hls @ 0x56176842cb40] Opening '/config/data/transcodes/fe84cfad02ad670f2aa0ca854e7ba97b408.ts' for writing
[hls @ 0x56176842cb40] Opening '/config/data/transcodes/fe84cfad02ad670f2aa0ca854e7ba97b409.ts' for writing
[hls @ 0x56176842cb40] Opening '/config/data/transcodes/fe84cfad02ad670f2aa0ca854e7ba97b410.ts' for writing
[hls @ 0x56176842cb40] Opening '/config/data/transcodes/fe84cfad02ad670f2aa0ca854e7ba97b411.ts' for writing
[hls @ 0x56176842cb40] Opening '/config/data/transcodes/fe84cfad02ad670f2aa0ca854e7ba97b412.ts' for writing
[hls @ 0x56176842cb40] Opening '/config/data/transcodes/fe84cfad02ad670f2aa0ca854e7ba97b413.ts' for writing
[hls @ 0x56176842cb40] Opening '/config/data/transcodes/fe84cfad02ad670f2aa0ca854e7ba97b414.ts' for writing
[hls @ 0x56176842cb40] Opening '/config/data/transcodes/fe84cfad02ad670f2aa0ca854e7ba97b415.ts' for writing
[hls @ 0x56176842cb40] Opening '/config/data/transcodes/fe84cfad02ad670f2aa0ca854e7ba97b416.ts' for writing
[hls @ 0x56176842cb40] Opening '/config/data/transcodes/fe84cfad02ad670f2aa0ca854e7ba97b417.ts' for writing
[hls @ 0x56176842cb40] Opening '/config/data/transcodes/fe84cfad02ad670f2aa0ca854e7ba97b418.ts' for writing
frame=125760 fps=35884 q=-1.0 size=N/A time=00:41:55.17 bitrate=N/A speed= 718x    
[hls @ 0x56176842cb40] Opening '/config/data/transcodes/fe84cfad02ad670f2aa0ca854e7ba97b419.ts' for writing
[hls @ 0x56176842cb40] Opening '/config/data/transcodes/fe84cfad02ad670f2aa0ca854e7ba97b420.ts' for writing
[hls @ 0x56176842cb40] Opening '/config/data/transcodes/fe84cfad02ad670f2aa0ca854e7ba97b421.ts' for writing
[hls @ 0x56176842cb40] Opening '/config/data/transcodes/fe84cfad02ad670f2aa0ca854e7ba97b422.ts' for writing
[hls @ 0x56176842cb40] Opening '/config/data/transcodes/fe84cfad02ad670f2aa0ca854e7ba97b423.ts' for writing
[hls @ 0x56176842cb40] Opening '/config/data/transcodes/fe84cfad02ad670f2aa0ca854e7ba97b424.ts' for writing
[hls @ 0x56176842cb40] Opening '/config/data/transcodes/fe84cfad02ad670f2aa0ca854e7ba97b425.ts' for writing
[hls @ 0x56176842cb40] Opening '/config/data/transcodes/fe84cfad02ad670f2aa0ca854e7ba97b426.ts' for writing
[hls @ 0x56176842cb40] Opening '/config/data/transcodes/fe84cfad02ad670f2aa0ca854e7ba97b427.ts' for writing
[hls @ 0x56176842cb40] Opening '/config/data/transcodes/fe84cfad02ad670f2aa0ca854e7ba97b428.ts' for writing
[hls @ 0x56176842cb40] Opening '/config/data/transcodes/fe84cfad02ad670f2aa0ca854e7ba97b429.ts' for writing
[hls @ 0x56176842cb40] Opening '/config/data/transcodes/fe84cfad02ad670f2aa0ca854e7ba97b430.ts' for writing
[hls @ 0x56176842cb40] Opening '/config/data/transcodes/fe84cfad02ad670f2aa0ca854e7ba97b431.ts' for writing
[hls @ 0x56176842cb40] Opening '/config/data/transcodes/fe84cfad02ad670f2aa0ca854e7ba97b432.ts' for writing
[hls @ 0x56176842cb40] Opening '/config/data/transcodes/fe84cfad02ad670f2aa0ca854e7ba97b433.ts' for writing
[hls @ 0x56176842cb40] Opening '/config/data/transcodes/fe84cfad02ad670f2aa0ca854e7ba97b434.ts' for writing
[hls @ 0x56176842cb40] Opening '/config/data/transcodes/fe84cfad02ad670f2aa0ca854e7ba97b435.ts' for writing
[hls @ 0x56176842cb40] Opening '/config/data/transcodes/fe84cfad02ad670f2aa0ca854e7ba97b436.ts' for writing
[hls @ 0x56176842cb40] Opening '/config/data/transcodes/fe84cfad02ad670f2aa0ca854e7ba97b437.ts' for writing
[hls @ 0x56176842cb40] Opening '/config/data/transcodes/fe84cfad02ad670f2aa0ca854e7ba97b438.ts' for writing
[hls @ 0x56176842cb40] Opening '/config/data/transcodes/fe84cfad02ad670f2aa0ca854e7ba97b439.ts' for writing
[hls @ 0x56176842cb40] Opening '/config/data/transcodes/fe84cfad02ad670f2aa0ca854e7ba97b440.ts' for writing
[hls @ 0x56176842cb40] Opening '/config/data/transcodes/fe84cfad02ad670f2aa0ca854e7ba97b441.ts' for writing
[hls @ 0x56176842cb40] Opening '/config/data/transcodes/fe84cfad02ad670f2aa0ca854e7ba97b442.ts' for writing
[hls @ 0x56176842cb40] Opening '/config/data/transcodes/fe84cfad02ad670f2aa0ca854e7ba97b443.ts' for writing
[hls @ 0x56176842cb40] Opening '/config/data/transcodes/fe84cfad02ad670f2aa0ca854e7ba97b444.ts' for writing
[hls @ 0x56176842cb40] Opening '/config/data/transcodes/fe84cfad02ad670f2aa0ca854e7ba97b445.ts' for writing
[hls @ 0x56176842cb40] Opening '/config/data/transcodes/fe84cfad02ad670f2aa0ca854e7ba97b446.ts' for writing
[hls @ 0x56176842cb40] Opening '/config/data/transcodes/fe84cfad02ad670f2aa0ca854e7ba97b447.ts' for writing
[hls @ 0x56176842cb40] Opening '/config/data/transcodes/fe84cfad02ad670f2aa0ca854e7ba97b448.ts' for writing
[hls @ 0x56176842cb40] Opening '/config/data/transcodes/fe84cfad02ad670f2aa0ca854e7ba97b449.ts' for writing
[hls @ 0x56176842cb40] Opening '/config/data/transcodes/fe84cfad02ad670f2aa0ca854e7ba97b450.ts' for writing
[hls @ 0x56176842cb40] Opening '/config/data/transcodes/fe84cfad02ad670f2aa0ca854e7ba97b451.ts' for writing
[hls @ 0x56176842cb40] Opening '/config/data/transcodes/fe84cfad02ad670f2aa0ca854e7ba97b452.ts' for writing
[hls @ 0x56176842cb40] Opening '/config/data/transcodes/fe84cfad02ad670f2aa0ca854e7ba97b453.ts' for writing
[hls @ 0x56176842cb40] Opening '/config/data/transcodes/fe84cfad02ad670f2aa0ca854e7ba97b454.ts' for writing
[hls @ 0x56176842cb40] Opening '/config/data/transcodes/fe84cfad02ad670f2aa0ca854e7ba97b455.ts' for writing
[hls @ 0x56176842cb40] Opening '/config/data/transcodes/fe84cfad02ad670f2aa0ca854e7ba97b456.ts' for writing
[hls @ 0x56176842cb40] Opening '/config/data/transcodes/fe84cfad02ad670f2aa0ca854e7ba97b457.ts' for writing
[hls @ 0x56176842cb40] Opening '/config/data/transcodes/fe84cfad02ad670f2aa0ca854e7ba97b458.ts' for writing
[hls @ 0x56176842cb40] Opening '/config/data/transcodes/fe84cfad02ad670f2aa0ca854e7ba97b459.ts' for writing
[hls @ 0x56176842cb40] Opening '/config/data/transcodes/fe84cfad02ad670f2aa0ca854e7ba97b460.ts' for writing
[hls @ 0x56176842cb40] Opening '/config/data/transcodes/fe84cfad02ad670f2aa0ca854e7ba97b461.ts' for writing
[hls @ 0x56176842cb40] Opening '/config/data/transcodes/fe84cfad02ad670f2aa0ca854e7ba97b462.ts' for writing
[hls @ 0x56176842cb40] Opening '/config/data/transcodes/fe84cfad02ad670f2aa0ca854e7ba97b463.ts' for writing
[hls @ 0x56176842cb40] Opening '/config/data/transcodes/fe84cfad02ad670f2aa0ca854e7ba97b464.ts' for writing
[hls @ 0x56176842cb40] Opening '/config/data/transcodes/fe84cfad02ad670f2aa0ca854e7ba97b465.ts' for writing
[hls @ 0x56176842cb40] Opening '/config/data/transcodes/fe84cfad02ad670f2aa0ca854e7ba97b466.ts' for writing
[hls @ 0x56176842cb40] Opening '/config/data/transcodes/fe84cfad02ad670f2aa0ca854e7ba97b467.ts' for writing
[hls @ 0x56176842cb40] Opening '/config/data/transcodes/fe84cfad02ad670f2aa0ca854e7ba97b468.ts' for writing
[hls @ 0x56176842cb40] Opening '/config/data/transcodes/fe84cfad02ad670f2aa0ca854e7ba97b469.ts' for writing
[hls @ 0x56176842cb40] Opening '/config/data/transcodes/fe84cfad02ad670f2aa0ca854e7ba97b470.ts' for writing
[hls @ 0x56176842cb40] Opening '/config/data/transcodes/fe84cfad02ad670f2aa0ca854e7ba97b471.ts' for writing
[hls @ 0x56176842cb40] Opening '/config/data/transcodes/fe84cfad02ad670f2aa0ca854e7ba97b472.ts' for writing
[hls @ 0x56176842cb40] Opening '/config/data/transcodes/fe84cfad02ad670f2aa0ca854e7ba97b473.ts' for writing
[hls @ 0x56176842cb40] Opening '/config/data/transcodes/fe84cfad02ad670f2aa0ca854e7ba97b474.ts' for writing
[hls @ 0x56176842cb40] Opening '/config/data/transcodes/fe84cfad02ad670f2aa0ca854e7ba97b475.ts' for writing
[hls @ 0x56176842cb40] Opening '/config/data/transcodes/fe84cfad02ad670f2aa0ca854e7ba97b476.ts' for writing
[hls @ 0x56176842cb40] Opening '/config/data/transcodes/fe84cfad02ad670f2aa0ca854e7ba97b477.ts' for writing
[hls @ 0x56176842cb40] Opening '/config/data/transcodes/fe84cfad02ad670f2aa0ca854e7ba97b478.ts' for writing
[hls @ 0x56176842cb40] Opening '/config/data/transcodes/fe84cfad02ad670f2aa0ca854e7ba97b479.ts' for writing
[hls @ 0x56176842cb40] Opening '/config/data/transcodes/fe84cfad02ad670f2aa0ca854e7ba97b480.ts' for writing
[hls @ 0x56176842cb40] Opening '/config/data/transcodes/fe84cfad02ad670f2aa0ca854e7ba97b481.ts' for writing
[hls @ 0x56176842cb40] Opening '/config/data/transcodes/fe84cfad02ad670f2aa0ca854e7ba97b482.ts' for writing
frame=145118 fps=36238 q=-1.0 size=N/A time=00:48:22.33 bitrate=N/A speed= 725x    
[hls @ 0x56176842cb40] Opening '/config/data/transcodes/fe84cfad02ad670f2aa0ca854e7ba97b483.ts' for writing
[hls @ 0x56176842cb40] Opening '/config/data/transcodes/fe84cfad02ad670f2aa0ca854e7ba97b484.ts' for writing
[hls @ 0x56176842cb40] Opening '/config/data/transcodes/fe84cfad02ad670f2aa0ca854e7ba97b485.ts' for writing
[hls @ 0x56176842cb40] Opening '/config/data/transcodes/fe84cfad02ad670f2aa0ca854e7ba97b486.ts' for writing
[hls @ 0x56176842cb40] Opening '/config/data/transcodes/fe84cfad02ad670f2aa0ca854e7ba97b487.ts' for writing
[hls @ 0x56176842cb40] Opening '/config/data/transcodes/fe84cfad02ad670f2aa0ca854e7ba97b488.ts' for writing
[hls @ 0x56176842cb40] Opening '/config/data/transcodes/fe84cfad02ad670f2aa0ca854e7ba97b489.ts' for writing
[hls @ 0x56176842cb40] Opening '/config/data/transcodes/fe84cfad02ad670f2aa0ca854e7ba97b490.ts' for writing
[hls @ 0x56176842cb40] Opening '/config/data/transcodes/fe84cfad02ad670f2aa0ca854e7ba97b491.ts' for writing
[hls @ 0x56176842cb40] Opening '/config/data/transcodes/fe84cfad02ad670f2aa0ca854e7ba97b492.ts' for writing
[hls @ 0x56176842cb40] Opening '/config/data/transcodes/fe84cfad02ad670f2aa0ca854e7ba97b493.ts' for writing
[hls @ 0x56176842cb40] Opening '/config/data/transcodes/fe84cfad02ad670f2aa0ca854e7ba97b494.ts' for writing
[hls @ 0x56176842cb40] Opening '/config/data/transcodes/fe84cfad02ad670f2aa0ca854e7ba97b495.ts' for writing
[hls @ 0x56176842cb40] Opening '/config/data/transcodes/fe84cfad02ad670f2aa0ca854e7ba97b496.ts' for writing
[hls @ 0x56176842cb40] Opening '/config/data/transcodes/fe84cfad02ad670f2aa0ca854e7ba97b497.ts' for writing
[hls @ 0x56176842cb40] Opening '/config/data/transcodes/fe84cfad02ad670f2aa0ca854e7ba97b498.ts' for writing
[hls @ 0x56176842cb40] Opening '/config/data/transcodes/fe84cfad02ad670f2aa0ca854e7ba97b499.ts' for writing
[hls @ 0x56176842cb40] Opening '/config/data/transcodes/fe84cfad02ad670f2aa0ca854e7ba97b500.ts' for writing
[hls @ 0x56176842cb40] Opening '/config/data/transcodes/fe84cfad02ad670f2aa0ca854e7ba97b501.ts' for writing
[hls @ 0x56176842cb40] Opening '/config/data/transcodes/fe84cfad02ad670f2aa0ca854e7ba97b502.ts' for writing
[hls @ 0x56176842cb40] Opening '/config/data/transcodes/fe84cfad02ad670f2aa0ca854e7ba97b503.ts' for writing
[hls @ 0x56176842cb40] Opening '/config/data/transcodes/fe84cfad02ad670f2aa0ca854e7ba97b504.ts' for writing
[hls @ 0x56176842cb40] Opening '/config/data/transcodes/fe84cfad02ad670f2aa0ca854e7ba97b505.ts' for writing
[hls @ 0x56176842cb40] Opening '/config/data/transcodes/fe84cfad02ad670f2aa0ca854e7ba97b506.ts' for writing
[hls @ 0x56176842cb40] Opening '/config/data/transcodes/fe84cfad02ad670f2aa0ca854e7ba97b507.ts' for writing
[hls @ 0x56176842cb40] Opening '/config/data/transcodes/fe84cfad02ad670f2aa0ca854e7ba97b508.ts' for writing
[hls @ 0x56176842cb40] Opening '/config/data/transcodes/fe84cfad02ad670f2aa0ca854e7ba97b509.ts' for writing
[hls @ 0x56176842cb40] Opening '/config/data/transcodes/fe84cfad02ad670f2aa0ca854e7ba97b510.ts' for writing
[hls @ 0x56176842cb40] Opening '/config/data/transcodes/fe84cfad02ad670f2aa0ca854e7ba97b511.ts' for writing
[hls @ 0x56176842cb40] Opening '/config/data/transcodes/fe84cfad02ad670f2aa0ca854e7ba97b512.ts' for writing
[hls @ 0x56176842cb40] Opening '/config/data/transcodes/fe84cfad02ad670f2aa0ca854e7ba97b513.ts' for writing
[hls @ 0x56176842cb40] Opening '/config/data/transcodes/fe84cfad02ad670f2aa0ca854e7ba97b514.ts' for writing
[hls @ 0x56176842cb40] Opening '/config/data/transcodes/fe84cfad02ad670f2aa0ca854e7ba97b515.ts' for writing
[hls @ 0x56176842cb40] Opening '/config/data/transcodes/fe84cfad02ad670f2aa0ca854e7ba97b516.ts' for writing
[hls @ 0x56176842cb40] Opening '/config/data/transcodes/fe84cfad02ad670f2aa0ca854e7ba97b517.ts' for writing
[hls @ 0x56176842cb40] Opening '/config/data/transcodes/fe84cfad02ad670f2aa0ca854e7ba97b518.ts' for writing
[hls @ 0x56176842cb40] Opening '/config/data/transcodes/fe84cfad02ad670f2aa0ca854e7ba97b519.ts' for writing
[hls @ 0x56176842cb40] Opening '/config/data/transcodes/fe84cfad02ad670f2aa0ca854e7ba97b520.ts' for writing
[hls @ 0x56176842cb40] Opening '/config/data/transcodes/fe84cfad02ad670f2aa0ca854e7ba97b521.ts' for writing
[hls @ 0x56176842cb40] Opening '/config/data/transcodes/fe84cfad02ad670f2aa0ca854e7ba97b522.ts' for writing
[hls @ 0x56176842cb40] Opening '/config/data/transcodes/fe84cfad02ad670f2aa0ca854e7ba97b523.ts' for writing
[hls @ 0x56176842cb40] Opening '/config/data/transcodes/fe84cfad02ad670f2aa0ca854e7ba97b524.ts' for writing
[hls @ 0x56176842cb40] Opening '/config/data/transcodes/fe84cfad02ad670f2aa0ca854e7ba97b525.ts' for writing
[hls @ 0x56176842cb40] Opening '/config/data/transcodes/fe84cfad02ad670f2aa0ca854e7ba97b526.ts' for writing
[hls @ 0x56176842cb40] Opening '/config/data/transcodes/fe84cfad02ad670f2aa0ca854e7ba97b527.ts' for writing
[hls @ 0x56176842cb40] Opening '/config/data/transcodes/fe84cfad02ad670f2aa0ca854e7ba97b528.ts' for writing
[hls @ 0x56176842cb40] Opening '/config/data/transcodes/fe84cfad02ad670f2aa0ca854e7ba97b529.ts' for writing
[hls @ 0x56176842cb40] Opening '/config/data/transcodes/fe84cfad02ad670f2aa0ca854e7ba97b530.ts' for writing
[hls @ 0x56176842cb40] Opening '/config/data/transcodes/fe84cfad02ad670f2aa0ca854e7ba97b531.ts' for writing
[hls @ 0x56176842cb40] Opening '/config/data/transcodes/fe84cfad02ad670f2aa0ca854e7ba97b532.ts' for writing
[hls @ 0x56176842cb40] Opening '/config/data/transcodes/fe84cfad02ad670f2aa0ca854e7ba97b533.ts' for writing
[hls @ 0x56176842cb40] Opening '/config/data/transcodes/fe84cfad02ad670f2aa0ca854e7ba97b534.ts' for writing
frame=160874 fps=35713 q=-1.0 size=N/A time=00:53:37.47 bitrate=N/A speed= 714x    
[hls @ 0x56176842cb40] Opening '/config/data/transcodes/fe84cfad02ad670f2aa0ca854e7ba97b535.ts' for writing
[hls @ 0x56176842cb40] Opening '/config/data/transcodes/fe84cfad02ad670f2aa0ca854e7ba97b536.ts' for writing
[hls @ 0x56176842cb40] Opening '/config/data/transcodes/fe84cfad02ad670f2aa0ca854e7ba97b537.ts' for writing
[hls @ 0x56176842cb40] Opening '/config/data/transcodes/fe84cfad02ad670f2aa0ca854e7ba97b538.ts' for writing
[hls @ 0x56176842cb40] Opening '/config/data/transcodes/fe84cfad02ad670f2aa0ca854e7ba97b539.ts' for writing
[hls @ 0x56176842cb40] Opening '/config/data/transcodes/fe84cfad02ad670f2aa0ca854e7ba97b540.ts' for writing
[hls @ 0x56176842cb40] Opening '/config/data/transcodes/fe84cfad02ad670f2aa0ca854e7ba97b541.ts' for writing
[hls @ 0x56176842cb40] Opening '/config/data/transcodes/fe84cfad02ad670f2aa0ca854e7ba97b542.ts' for writing
[hls @ 0x56176842cb40] Opening '/config/data/transcodes/fe84cfad02ad670f2aa0ca854e7ba97b543.ts' for writing
[hls @ 0x56176842cb40] Opening '/config/data/transcodes/fe84cfad02ad670f2aa0ca854e7ba97b544.ts' for writing
[hls @ 0x56176842cb40] Opening '/config/data/transcodes/fe84cfad02ad670f2aa0ca854e7ba97b545.ts' for writing
[hls @ 0x56176842cb40] Opening '/config/data/transcodes/fe84cfad02ad670f2aa0ca854e7ba97b546.ts' for writing
[hls @ 0x56176842cb40] Opening '/config/data/transcodes/fe84cfad02ad670f2aa0ca854e7ba97b547.ts' for writing
[hls @ 0x56176842cb40] Opening '/config/data/transcodes/fe84cfad02ad670f2aa0ca854e7ba97b548.ts' for writing
[hls @ 0x56176842cb40] Opening '/config/data/transcodes/fe84cfad02ad670f2aa0ca854e7ba97b549.ts' for writing
[hls @ 0x56176842cb40] Opening '/config/data/transcodes/fe84cfad02ad670f2aa0ca854e7ba97b550.ts' for writing
[hls @ 0x56176842cb40] Opening '/config/data/transcodes/fe84cfad02ad670f2aa0ca854e7ba97b551.ts' for writing
[hls @ 0x56176842cb40] Opening '/config/data/transcodes/fe84cfad02ad670f2aa0ca854e7ba97b552.ts' for writing
[hls @ 0x56176842cb40] Opening '/config/data/transcodes/fe84cfad02ad670f2aa0ca854e7ba97b553.ts' for writing
[hls @ 0x56176842cb40] Opening '/config/data/transcodes/fe84cfad02ad670f2aa0ca854e7ba97b554.ts' for writing
[hls @ 0x56176842cb40] Opening '/config/data/transcodes/fe84cfad02ad670f2aa0ca854e7ba97b555.ts' for writing
[hls @ 0x56176842cb40] Opening '/config/data/transcodes/fe84cfad02ad670f2aa0ca854e7ba97b556.ts' for writing
[hls @ 0x56176842cb40] Opening '/config/data/transcodes/fe84cfad02ad670f2aa0ca854e7ba97b557.ts' for writing
[hls @ 0x56176842cb40] Opening '/config/data/transcodes/fe84cfad02ad670f2aa0ca854e7ba97b558.ts' for writing
[hls @ 0x56176842cb40] Opening '/config/data/transcodes/fe84cfad02ad670f2aa0ca854e7ba97b559.ts' for writing
[hls @ 0x56176842cb40] Opening '/config/data/transcodes/fe84cfad02ad670f2aa0ca854e7ba97b560.ts' for writing
[hls @ 0x56176842cb40] Opening '/config/data/transcodes/fe84cfad02ad670f2aa0ca854e7ba97b561.ts' for writing
[hls @ 0x56176842cb40] Opening '/config/data/transcodes/fe84cfad02ad670f2aa0ca854e7ba97b562.ts' for writing
[hls @ 0x56176842cb40] Opening '/config/data/transcodes/fe84cfad02ad670f2aa0ca854e7ba97b563.ts' for writing
[hls @ 0x56176842cb40] Opening '/config/data/transcodes/fe84cfad02ad670f2aa0ca854e7ba97b564.ts' for writing
[hls @ 0x56176842cb40] Opening '/config/data/transcodes/fe84cfad02ad670f2aa0ca854e7ba97b565.ts' for writing
[hls @ 0x56176842cb40] Opening '/config/data/transcodes/fe84cfad02ad670f2aa0ca854e7ba97b566.ts' for writing
[hls @ 0x56176842cb40] Opening '/config/data/transcodes/fe84cfad02ad670f2aa0ca854e7ba97b567.ts' for writing
[hls @ 0x56176842cb40] Opening '/config/data/transcodes/fe84cfad02ad670f2aa0ca854e7ba97b568.ts' for writing
[hls @ 0x56176842cb40] Opening '/config/data/transcodes/fe84cfad02ad670f2aa0ca854e7ba97b569.ts' for writing
[hls @ 0x56176842cb40] Opening '/config/data/transcodes/fe84cfad02ad670f2aa0ca854e7ba97b570.ts' for writing
[hls @ 0x56176842cb40] Opening '/config/data/transcodes/fe84cfad02ad670f2aa0ca854e7ba97b571.ts' for writing
[hls @ 0x56176842cb40] Opening '/config/data/transcodes/fe84cfad02ad670f2aa0ca854e7ba97b572.ts' for writing
[hls @ 0x56176842cb40] Opening '/config/data/transcodes/fe84cfad02ad670f2aa0ca854e7ba97b573.ts' for writing
[hls @ 0x56176842cb40] Opening '/config/data/transcodes/fe84cfad02ad670f2aa0ca854e7ba97b574.ts' for writing
frame=172502 fps=35681 q=-1.0 Lsize=N/A time=00:57:30.04 bitrate=N/A speed= 714x    
video:733544kB audio:40431kB subtitle:0kB other streams:0kB global headers:0kB muxing overhead: unknown